<svg width="501" height="501" viewBox="0 0 501 501" fill="none" xmlns="http://www.w3.org/2000/svg">
<path d="M259.322 239.601C260.049 236.765 261.464 235.432 263.208 233.158L268.521 226.246C271.966 221.739 275.349 217.183 278.86 212.726C279.222 212.291 279.57 211.946 280.056 211.655C283.039 209.867 285.445 212.117 287.725 213.879C288.898 214.786 290.079 215.693 291.253 216.592L302.736 225.388C309.319 230.448 316.76 235.83 323.109 241.039C325.353 242.898 327.508 244.86 329.569 246.919C335.438 252.825 340.467 259.511 344.517 266.786C368.944 310.949 353.162 365.763 308.919 390.122C300.717 394.573 291.88 397.736 282.716 399.503C281.119 399.833 279.509 400.101 277.89 400.301C276.804 400.44 274.229 400.655 273.318 401H229.081C226.778 400.603 224.463 400.483 222.186 400.079C218.666 399.454 215.08 398.733 211.636 397.786C196.393 393.519 182.546 385.302 171.495 373.967C168.593 371.038 165.659 367.785 163.293 364.396C162.446 363.181 161.787 361.816 162.064 360.301C162.187 359.629 162.469 359.019 162.85 358.458C164.952 355.36 167.459 352.452 169.749 349.487C171.908 346.689 182.158 332.832 183.811 331.718C184.785 331.062 186.034 330.838 187.184 331.067C188.514 331.33 189.39 332.206 190.102 333.311C191.377 335.291 192.257 337.462 193.62 339.408C201.314 350.385 212.224 357.883 225.339 360.784C227.615 361.287 229.99 361.704 232.318 361.844C234.526 361.976 236.791 361.883 239.005 361.879L250.88 361.874L262.307 361.879C266.587 361.885 269.591 362.039 273.848 361.272C280.603 360.123 287.065 357.656 292.869 354.013C304.887 346.32 312.636 335.101 315.677 321.204C318.443 308.178 315.939 294.587 308.714 283.401C306.103 279.312 302.952 275.594 299.345 272.348C296.451 269.753 291.523 266.16 288.293 263.703L270.185 249.88C268.437 248.52 266.679 247.172 264.91 245.84C262.439 243.981 260.115 242.773 259.322 239.601Z" fill="black"/>
<path d="M227.176 100H275.417L275.596 100.055C276.979 100.463 280.233 100.72 281.911 101.029C286.085 101.798 290.211 102.814 294.266 104.07C296.484 104.742 298.632 105.64 300.79 106.527C313.18 111.62 324.266 119.529 333.325 129.376C334.941 131.132 337.643 133.633 336.861 136.341C336.128 138.482 333.459 141.467 332.007 143.313L325.964 151.066C323.426 154.335 320.92 157.627 318.376 160.892C316.674 163.078 315.936 164.313 313.116 164.949C308.878 163.528 309.141 161.757 306.604 158.589C302.996 154.063 298.688 150.142 293.843 146.972C288.458 143.44 281.364 140.818 275.049 139.661C270.97 138.914 266.688 138.964 262.557 138.962L251.776 138.958C247.44 138.958 242.503 139.107 238.228 138.964C199.544 137.668 173.099 178.524 190.778 213.13C196.558 224.443 202.022 228.15 211.663 235.572L231.745 250.939C242.406 259.208 242.588 257.686 234.129 268.601L228.003 276.644L222.996 283.162C222.267 284.109 221.006 285.839 220.231 286.697C219.886 287.073 219.471 287.379 219.011 287.601C215.706 289.197 212.376 285.614 209.894 283.703L201.553 277.268C196.358 273.359 191.186 269.42 186.037 265.45C181.988 262.349 178.406 259.7 174.654 256.224C165.754 247.839 158.612 237.771 153.643 226.605C150.752 220.047 148.158 211.6 147.048 204.506C146.739 202.471 146.472 200.43 146.248 198.383C146.159 197.501 146.229 195.736 146 195.104V184.681C146.257 184.37 146.17 182.423 146.216 181.893C149.305 146.568 174.48 114.564 208.718 103.96C212.899 102.708 217.146 101.689 221.44 100.909C223.03 100.62 225.635 100.456 226.999 100.054L227.176 100Z" fill="black"/>
</svg>
